<svg id="kity_svg_6" xmlns="http://www.w3.org/2000/svg" xmlns:xlink="http://www.w3.org/1999/xlink" version="1.1" width="1018" height="1001" style="background: rgb(251, 251, 251) none repeat scroll 0% 0%; visibility: visible;" viewBox="0 0 1018 1001"><defs id="kity_defs_7"><linearGradient id="kity_linearGradient_17" x1="0" y1="0" x2="0" y2="1"><stop id="kity_stop_18" offset="0" stop-color="rgb(255, 255, 255)"></stop><stop id="kity_stop_19" offset="1" stop-color="rgb(204, 204, 204)"></stop></linearGradient><marker id="kity_marker_2" orient="auto" refX="6" refY="0" viewBox="-7 -7 14 14" markerWidth="7" markerHeight="7" markerUnits="userSpaceOnUse"><path id="kity_path_3" fill="rgb(115, 161, 191)" stroke="none" d="M6,0A6,6,0,1,1,-6,0A6,6,0,1,1,6,0"></path></marker></defs><g id="kity_g_8"><g id="minder1" text-rendering="optimize-speed"><g id="minder_connect_group1"><path id="kity_path_31" fill="none" stroke="rgb(115, 161, 191)" stroke-width="1" d="M83,308.5A180.5,259,0,0,1,263.5,49.5"></path><path id="kity_path_33" fill="none" stroke="rgb(115, 161, 191)" stroke-width="1" d="M333.5,49.5C353.5,49.5,353.5,49.5,373.5,49.5"></path><path id="kity_path_35" fill="none" stroke="rgb(115, 161, 191)" stroke-width="1" d="M83,308.5A180.5,259,0,0,0,263.5,567.5"></path><path id="kity_path_37" fill="none" stroke="rgb(115, 161, 191)" stroke-width="1" d="M333.5,567.5C353.5,567.5,353.5,235.5,373.5,235.5"></path><path id="kity_path_39" fill="none" stroke="rgb(115, 161, 191)" stroke-width="1" d="M441.5,235.5C461.5,235.5,461.5,148.5,481.5,148.5"></path><path id="kity_path_41" fill="none" stroke="rgb(115, 161, 191)" stroke-width="1" d="M525.5,148.5C545.5,148.5,545.5,148.5,565.5,148.5"></path><path id="kity_path_43" fill="none" stroke="rgb(115, 161, 191)" stroke-width="1" d="M441.5,235.5C461.5,235.5,461.5,218.5,481.5,218.5"></path><path id="kity_path_45" fill="none" stroke="rgb(115, 161, 191)" stroke-width="1" d="M441.5,235.5C461.5,235.5,461.5,270.5,481.5,270.5"></path><path id="kity_path_47" fill="none" stroke="rgb(115, 161, 191)" stroke-width="1" d="M441.5,235.5C461.5,235.5,461.5,322.5,481.5,322.5"></path><path id="kity_path_49" fill="none" stroke="rgb(115, 161, 191)" stroke-width="1" d="M333.5,567.5C353.5,567.5,353.5,427.5,373.5,427.5"></path><path id="kity_path_51" fill="none" stroke="rgb(115, 161, 191)" stroke-width="1" d="M453.5,427.5C473.5,427.5,473.5,401.5,493.5,401.5"></path><path id="kity_path_53" fill="none" stroke="rgb(115, 161, 191)" stroke-width="1" d="M453.5,427.5C473.5,427.5,473.5,480.5,493.5,480.5"></path><path id="kity_path_55" fill="none" stroke="rgb(115, 161, 191)" stroke-width="1" d="M333.5,567.5C353.5,567.5,353.5,585.5,373.5,585.5"></path><path id="kity_path_57" fill="none" stroke="rgb(115, 161, 191)" stroke-width="1" d="M441.5,585.5C461.5,585.5,461.5,550.5,481.5,550.5"></path><path id="kity_path_59" fill="none" stroke="rgb(115, 161, 191)" stroke-width="1" d="M441.5,585.5C461.5,585.5,461.5,629.5,481.5,629.5"></path><path id="kity_path_61" fill="none" stroke="rgb(115, 161, 191)" stroke-width="1" d="M333.5,567.5C353.5,567.5,353.5,734.5,373.5,734.5"></path><path id="kity_path_63" fill="none" stroke="rgb(115, 161, 191)" stroke-width="1" d="M453.5,734.5C473.5,734.5,473.5,708.5,493.5,708.5"></path><path id="kity_path_65" fill="none" stroke="rgb(115, 161, 191)" stroke-width="1" d="M453.5,734.5C473.5,734.5,473.5,778.5,493.5,778.5"></path><path id="kity_path_67" fill="none" stroke="rgb(115, 161, 191)" stroke-width="1" d="M333.5,567.5C353.5,567.5,353.5,900.5,373.5,900.5"></path><path id="kity_path_69" fill="none" stroke="rgb(115, 161, 191)" stroke-width="1" d="M441.5,900.5C461.5,900.5,461.5,848.5,481.5,848.5"></path><path id="kity_path_71" fill="none" stroke="rgb(115, 161, 191)" stroke-width="1" d="M441.5,900.5C461.5,900.5,461.5,918.5,481.5,918.5"></path><path id="kity_path_73" fill="none" stroke="rgb(115, 161, 191)" stroke-width="1" d="M441.5,900.5C461.5,900.5,461.5,970.5,481.5,970.5"></path></g><g id="minder_node1"><path id="node_outline1" fill="rgb(115, 161, 191)" stroke="rgb(115, 161, 191)" d="M25.5,288.5h115a5,5,0,0,1,5,5v30a5,5,0,0,1,-5,5h-115a5,5,0,0,1,-5,-5v-30a5,5,0,0,1,5,-5z" stroke-width="3"></path><g id="node_text1" fill="white"><text id="kity_text_22" text-rendering="inherit" font-size="16" dy=".8em" y="297.939998626709" x="44.5">1.网页布局</text></g></g><g id="kity_g_12"><path id="kity_path_13" fill="none" stroke="none" d="M44.5,308.5h0v0h0z"></path></g><g id="kity_g_14"><path id="kity_path_15" fill="none" stroke="none" d="M44.5,308.5h0v0h0z"></path><path id="kity_path_16" fill="none" stroke="none"></path></g><g id="minder_node2"><g id="node_expander2" style="cursor: pointer;"><path id="kity_path_158" fill="white" stroke="gray" d="M264.5,49.5A6,6,0,1,1,252.5,49.5A6,6,0,1,1,264.5,49.5"></path><path id="kity_path_159" fill="none" stroke="gray" d="M254,49.5L263,49.5"></path></g><path id="node_outline3" fill="rgb(238, 243, 246)" stroke="rgb(115, 161, 191)" d="M268.5,36.5h62a3,3,0,0,1,3,3v20a3,3,0,0,1,-3,3h-62a3,3,0,0,1,-3,-3v-20a3,3,0,0,1,3,-3z" stroke-width="1"></path><g id="node_text3" fill="black"><text id="kity_text_79" text-rendering="inherit" font-size="14" dy=".8em" y="40.2599983215332" x="285.5">概述</text></g></g><g id="minder_node3"><g id="node_expander1" style="cursor: pointer;" display="none"><path id="kity_path_155" fill="white" stroke="gray" d="M373.5,49.5A6,6,0,1,1,361.5,49.5A6,6,0,1,1,373.5,49.5"></path><path id="kity_path_156" fill="none" stroke="gray"></path></g><path id="node_outline2" fill="none" stroke="none" d="M378.5,20.5h274a5,5,0,0,1,5,5v48a5,5,0,0,1,-5,5h-274a5,5,0,0,1,-5,-5v-48a5,5,0,0,1,5,-5z" stroke-width="3"></path><g id="node_text2" fill="black"><text id="kity_text_75" text-rendering="inherit" font-size="12" dy=".8em" y="23.580001831054688" x="383.5">对页面的文字、图形或表格等进行格式设置。</text><text id="kity_text_76" text-rendering="inherit" font-size="12" dy=".8em" y="41.58000183105469" x="383.5">包括字体、字号、颜色纸张大小和方向以及页边距</text><text id="kity_text_77" text-rendering="inherit" font-size="12" dy=".8em" y="59.58000183105469" x="383.5">等</text></g></g><g id="minder_node4"><g id="node_expander22" style="cursor: pointer;"><path id="kity_path_218" fill="white" stroke="gray" d="M264.5,567.5A6,6,0,1,1,252.5,567.5A6,6,0,1,1,264.5,567.5"></path><path id="kity_path_219" fill="none" stroke="gray" d="M254,567.5L263,567.5"></path></g><path id="node_outline23" fill="rgb(238, 243, 246)" stroke="rgb(115, 161, 191)" d="M268.5,554.5h62a3,3,0,0,1,3,3v20a3,3,0,0,1,-3,3h-62a3,3,0,0,1,-3,-3v-20a3,3,0,0,1,3,-3z" stroke-width="1"></path><g id="node_text23" fill="black"><text id="kity_text_131" text-rendering="inherit" font-size="14" dy=".8em" y="558.2599983215332" x="285.5">分类</text></g></g><g id="minder_node5"><g id="node_expander8" style="cursor: pointer;"><path id="kity_path_176" fill="white" stroke="gray" d="M373.5,235.5A6,6,0,1,1,361.5,235.5A6,6,0,1,1,373.5,235.5"></path><path id="kity_path_177" fill="none" stroke="gray" d="M363,235.5L372,235.5"></path></g><path id="node_outline9" fill="none" stroke="none" d="M378.5,224.5h58a5,5,0,0,1,5,5v12a5,5,0,0,1,-5,5h-58a5,5,0,0,1,-5,-5v-12a5,5,0,0,1,5,-5z" stroke-width="3"></path><g id="node_text9" fill="black"><text id="kity_text_93" text-rendering="inherit" font-size="12" dy=".8em" y="227.5800018310547" x="383.5">静态布局</text></g></g><g id="minder_node6"><g id="node_expander4" style="cursor: pointer;"><path id="kity_path_164" fill="white" stroke="gray" d="M481.5,148.5A6,6,0,1,1,469.5,148.5A6,6,0,1,1,481.5,148.5"></path><path id="kity_path_165" fill="none" stroke="gray" d="M471,148.5L480,148.5"></path></g><path id="node_outline5" fill="none" stroke="none" d="M486.5,137.5h34a5,5,0,0,1,5,5v12a5,5,0,0,1,-5,5h-34a5,5,0,0,1,-5,-5v-12a5,5,0,0,1,5,-5z" stroke-width="3"></path><g id="node_text5" fill="black"><text id="kity_text_85" text-rendering="inherit" font-size="12" dy=".8em" y="140.5800018310547" x="491.5">概述</text></g></g><g id="minder_node7"><g id="node_expander3" style="cursor: pointer;" display="none"><path id="kity_path_161" fill="white" stroke="gray" d="M565.5,148.5A6,6,0,1,1,553.5,148.5A6,6,0,1,1,565.5,148.5"></path><path id="kity_path_162" fill="none" stroke="gray"></path></g><path id="node_outline4" fill="none" stroke="none" d="M570.5,119.5h423a5,5,0,0,1,5,5v48a5,5,0,0,1,-5,5h-423a5,5,0,0,1,-5,-5v-48a5,5,0,0,1,5,-5z" stroke-width="3"></path><g id="node_text4" fill="black"><text id="kity_text_81" text-rendering="inherit" font-size="12" dy=".8em" y="122.58000183105469" x="575.5">传统Web设计，对于PC设计一个适应于大多数网页的布局，</text><text id="kity_text_82" text-rendering="inherit" font-size="12" dy=".8em" y="140.5800018310547" x="575.5">在屏幕宽高有调整时，使用横向和竖向的滚动条来查阅被遮掩部分；</text><text id="kity_text_83" text-rendering="inherit" font-size="12" dy=".8em" y="158.5800018310547" x="575.5">对于移动设备，单独设计一个布局和访问空间，使用不同的域名如wap.或m.。</text></g></g><g id="minder_node8"><g id="node_expander5" style="cursor: pointer;" display="none"><path id="kity_path_167" fill="white" stroke="gray" d="M481.5,218.5A6,6,0,1,1,469.5,218.5A6,6,0,1,1,481.5,218.5"></path><path id="kity_path_168" fill="none" stroke="gray"></path></g><path id="node_outline6" fill="none" stroke="none" d="M486.5,207.5h195a5,5,0,0,1,5,5v12a5,5,0,0,1,-5,5h-195a5,5,0,0,1,-5,-5v-12a5,5,0,0,1,5,-5z" stroke-width="3"></path><g id="node_text6" fill="black"><text id="kity_text_87" text-rendering="inherit" font-size="12" dy=".8em" y="210.5800018310547" x="491.5">HTML4.01/XHTML1.0：DIV+CSS</text></g></g><g id="minder_node9"><g id="node_expander6" style="cursor: pointer;" display="none"><path id="kity_path_170" fill="white" stroke="gray" d="M481.5,270.5A6,6,0,1,1,469.5,270.5A6,6,0,1,1,481.5,270.5"></path><path id="kity_path_171" fill="none" stroke="gray"></path></g><path id="node_outline7" fill="none" stroke="none" d="M486.5,259.5h270a5,5,0,0,1,5,5v12a5,5,0,0,1,-5,5h-270a5,5,0,0,1,-5,-5v-12a5,5,0,0,1,5,-5z" stroke-width="3"></path><g id="node_text7" fill="black"><text id="kity_text_89" text-rendering="inherit" font-size="12" dy=".8em" y="262.5800018310547" x="491.5">HTML5：header、selection、footer等替代DIV</text></g></g><g id="minder_node10"><g id="node_expander7" style="cursor: pointer;" display="none"><path id="kity_path_173" fill="white" stroke="gray" d="M481.5,322.5A6,6,0,1,1,469.5,322.5A6,6,0,1,1,481.5,322.5"></path><path id="kity_path_174" fill="none" stroke="gray"></path></g><path id="node_outline8" fill="none" stroke="none" d="M486.5,311.5h406a5,5,0,0,1,5,5v12a5,5,0,0,1,-5,5h-406a5,5,0,0,1,-5,-5v-12a5,5,0,0,1,5,-5z" stroke-width="3"></path><g id="node_text8" fill="black"><text id="kity_text_91" text-rendering="inherit" font-size="12" dy=".8em" y="314.5800018310547" x="491.5">就是不管浏览器尺寸具体是多少，网页布局就按照当时写代码的布局来布置</text></g></g><g id="minder_node11"><g id="node_expander11" style="cursor: pointer;"><path id="kity_path_185" fill="white" stroke="gray" d="M373.5,427.5A6,6,0,1,1,361.5,427.5A6,6,0,1,1,373.5,427.5"></path><path id="kity_path_186" fill="none" stroke="gray" d="M363,427.5L372,427.5"></path></g><path id="node_outline12" fill="none" stroke="none" d="M378.5,416.5h70a5,5,0,0,1,5,5v12a5,5,0,0,1,-5,5h-70a5,5,0,0,1,-5,-5v-12a5,5,0,0,1,5,-5z" stroke-width="3"></path><g id="node_text12" fill="black"><text id="kity_text_102" text-rendering="inherit" font-size="12" dy=".8em" y="419.5800018310547" x="383.5">自适应布局</text></g></g><g id="minder_node12"><g id="node_expander9" style="cursor: pointer;" display="none"><path id="kity_path_179" fill="white" stroke="gray" d="M493.5,401.5A6,6,0,1,1,481.5,401.5A6,6,0,1,1,493.5,401.5"></path><path id="kity_path_180" fill="none" stroke="gray"></path></g><path id="node_outline10" fill="none" stroke="none" d="M498.5,363.5h274a5,5,0,0,1,5,5v66a5,5,0,0,1,-5,5h-274a5,5,0,0,1,-5,-5v-66a5,5,0,0,1,5,-5z" stroke-width="3"></path><g id="node_text10" fill="black"><text id="kity_text_95" text-rendering="inherit" font-size="12" dy=".8em" y="366.5800018310547" x="503.5">分别为不同的屏幕分辨率定义布局。</text><text id="kity_text_96" text-rendering="inherit" font-size="12" dy=".8em" y="384.5800018310547" x="503.5">布局切换时页面元素发生改变，但在每个布局中，</text><text id="kity_text_97" text-rendering="inherit" font-size="12" dy=".8em" y="402.5800018310547" x="503.5">页面元素不随窗口大小的调整发生变化。</text><text id="kity_text_98" text-rendering="inherit" font-size="12" dy=".8em" y="420.5800018310547" x="503.5">可以把自适应布局看作是静态布局的一个系列。</text></g></g><g id="minder_node13"><g id="node_expander10" style="cursor: pointer;" display="none"><path id="kity_path_182" fill="white" stroke="gray" d="M493.5,480.5A6,6,0,1,1,481.5,480.5A6,6,0,1,1,493.5,480.5"></path><path id="kity_path_183" fill="none" stroke="gray"></path></g><path id="node_outline11" fill="none" stroke="none" d="M498.5,469.5h346a5,5,0,0,1,5,5v12a5,5,0,0,1,-5,5h-346a5,5,0,0,1,-5,-5v-12a5,5,0,0,1,5,-5z" stroke-width="3"></path><g id="node_text11" fill="black"><text id="kity_text_100" text-rendering="inherit" font-size="12" dy=".8em" y="472.5800018310547" x="503.5">就是说我们看到的页面，里面元素的位置会变化而大小不会变化</text></g></g><g id="minder_node14"><g id="node_expander14" style="cursor: pointer;"><path id="kity_path_194" fill="white" stroke="gray" d="M373.5,585.5A6,6,0,1,1,361.5,585.5A6,6,0,1,1,373.5,585.5"></path><path id="kity_path_195" fill="none" stroke="gray" d="M363,585.5L372,585.5"></path></g><path id="node_outline15" fill="none" stroke="none" d="M378.5,574.5h58a5,5,0,0,1,5,5v12a5,5,0,0,1,-5,5h-58a5,5,0,0,1,-5,-5v-12a5,5,0,0,1,5,-5z" stroke-width="3"></path><g id="node_text15" fill="black"><text id="kity_text_111" text-rendering="inherit" font-size="12" dy=".8em" y="577.5800018310547" x="383.5">流式布局</text></g></g><g id="minder_node15"><g id="node_expander12" style="cursor: pointer;" display="none"><path id="kity_path_188" fill="white" stroke="gray" d="M481.5,550.5A6,6,0,1,1,469.5,550.5A6,6,0,1,1,481.5,550.5"></path><path id="kity_path_189" fill="none" stroke="gray"></path></g><path id="node_outline13" fill="none" stroke="none" d="M486.5,521.5h334a5,5,0,0,1,5,5v48a5,5,0,0,1,-5,5h-334a5,5,0,0,1,-5,-5v-48a5,5,0,0,1,5,-5z" stroke-width="3"></path><g id="node_text13" fill="black"><text id="kity_text_104" text-rendering="inherit" font-size="12" dy=".8em" y="524.5800018310547" x="491.5">页面元素的宽度按照屏幕进行适配调整。</text><text id="kity_text_105" text-rendering="inherit" font-size="12" dy=".8em" y="542.5800018310547" x="491.5">主要的问题是如果屏幕尺度跨度太大，</text><text id="kity_text_106" text-rendering="inherit" font-size="12" dy=".8em" y="560.5800018310547" x="491.5">那么在相对其原始设计而言过小或过大的屏幕上不能正常显示</text></g></g><g id="minder_node16"><g id="node_expander13" style="cursor: pointer;" display="none"><path id="kity_path_191" fill="white" stroke="gray" d="M481.5,629.5A6,6,0,1,1,469.5,629.5A6,6,0,1,1,481.5,629.5"></path><path id="kity_path_192" fill="none" stroke="gray"></path></g><path id="node_outline14" fill="none" stroke="none" d="M486.5,609.5h348a5,5,0,0,1,5,5v30a5,5,0,0,1,-5,5h-348a5,5,0,0,1,-5,-5v-30a5,5,0,0,1,5,-5z" stroke-width="3"></path><g id="node_text14" fill="black"><text id="kity_text_108" text-rendering="inherit" font-size="12" dy=".8em" y="612.5800018310547" x="491.5">看到的页面，元素的大小会变化而位置不会变化</text><text id="kity_text_109" text-rendering="inherit" font-size="12" dy=".8em" y="630.5800018310547" x="491.5">——这就导致如果屏幕太大或者太小都会导致元素无法正常显示</text></g></g><g id="minder_node17"><g id="node_expander17" style="cursor: pointer;"><path id="kity_path_203" fill="white" stroke="gray" d="M373.5,734.5A6,6,0,1,1,361.5,734.5A6,6,0,1,1,373.5,734.5"></path><path id="kity_path_204" fill="none" stroke="gray" d="M363,734.5L372,734.5"></path></g><path id="node_outline18" fill="none" stroke="none" d="M378.5,723.5h70a5,5,0,0,1,5,5v12a5,5,0,0,1,-5,5h-70a5,5,0,0,1,-5,-5v-12a5,5,0,0,1,5,-5z" stroke-width="3"></path><g id="node_text18" fill="black"><text id="kity_text_119" text-rendering="inherit" font-size="12" dy=".8em" y="726.5800018310547" x="383.5">响应式布局</text></g></g><g id="minder_node18"><g id="node_expander15" style="cursor: pointer;" display="none"><path id="kity_path_197" fill="white" stroke="gray" d="M493.5,708.5A6,6,0,1,1,481.5,708.5A6,6,0,1,1,493.5,708.5"></path><path id="kity_path_198" fill="none" stroke="gray"></path></g><path id="node_outline16" fill="none" stroke="none" d="M498.5,679.5h442a5,5,0,0,1,5,5v48a5,5,0,0,1,-5,5h-442a5,5,0,0,1,-5,-5v-48a5,5,0,0,1,5,-5z" stroke-width="3"></path><g id="node_text16" fill="black"><text id="kity_text_113" text-rendering="inherit" font-size="12" dy=".8em" y="682.5800018310547" x="503.5">分别为不同的屏幕分辨率定义布局，同时，</text><text id="kity_text_114" text-rendering="inherit" font-size="12" dy=".8em" y="700.5800018310547" x="503.5">在每个布局中，应用流式布局的理念，即页面元素宽度随着窗口调整而自动适配。</text><text id="kity_text_115" text-rendering="inherit" font-size="12" dy=".8em" y="718.5800018310547" x="503.5">可以把响应式布局看作是流式布局和自适应布局设计理念的融合。</text></g></g><g id="minder_node19"><g id="node_expander16" style="cursor: pointer;" display="none"><path id="kity_path_200" fill="white" stroke="gray" d="M493.5,778.5A6,6,0,1,1,481.5,778.5A6,6,0,1,1,493.5,778.5"></path><path id="kity_path_201" fill="none" stroke="gray"></path></g><path id="node_outline17" fill="none" stroke="none" d="M498.5,767.5h382a5,5,0,0,1,5,5v12a5,5,0,0,1,-5,5h-382a5,5,0,0,1,-5,-5v-12a5,5,0,0,1,5,-5z" stroke-width="3"></path><g id="node_text17" fill="black"><text id="kity_text_117" text-rendering="inherit" font-size="12" dy=".8em" y="770.5800018310547" x="503.5">每个屏幕分辨率下面会有一个布局样式，同时位置会变而且大小也会变</text></g></g><g id="minder_node20"><g id="node_expander21" style="cursor: pointer;"><path id="kity_path_215" fill="white" stroke="gray" d="M373.5,900.5A6,6,0,1,1,361.5,900.5A6,6,0,1,1,373.5,900.5"></path><path id="kity_path_216" fill="none" stroke="gray" d="M363,900.5L372,900.5"></path></g><path id="node_outline22" fill="none" stroke="none" d="M378.5,889.5h58a5,5,0,0,1,5,5v12a5,5,0,0,1,-5,5h-58a5,5,0,0,1,-5,-5v-12a5,5,0,0,1,5,-5z" stroke-width="3"></path><g id="node_text22" fill="black"><text id="kity_text_129" text-rendering="inherit" font-size="12" dy=".8em" y="892.5800018310547" x="383.5">弹性布局</text></g></g><g id="minder_node21"><g id="node_expander18" style="cursor: pointer;" display="none"><path id="kity_path_206" fill="white" stroke="gray" d="M481.5,848.5A6,6,0,1,1,469.5,848.5A6,6,0,1,1,481.5,848.5"></path><path id="kity_path_207" fill="none" stroke="gray"></path></g><path id="node_outline19" fill="none" stroke="none" d="M486.5,819.5h490a5,5,0,0,1,5,5v48a5,5,0,0,1,-5,5h-490a5,5,0,0,1,-5,-5v-48a5,5,0,0,1,5,-5z" stroke-width="3"></path><g id="node_text19" fill="black"><text id="kity_text_121" text-rendering="inherit" font-size="12" dy=".8em" y="822.5800018310547" x="491.5">一种当页面需要适应不同的屏幕大小以及设备类型时确保元素拥有恰当的行为的布局方式。</text><text id="kity_text_122" text-rendering="inherit" font-size="12" dy=".8em" y="840.5800018310547" x="491.5">引入弹性盒布局模型的目的是提供一种更加有效的方式</text><text id="kity_text_123" text-rendering="inherit" font-size="12" dy=".8em" y="858.5800018310547" x="491.5">来对一个容器中的子元素进行排列、对齐和分配空白空间</text></g></g><g id="minder_node22"><g id="node_expander19" style="cursor: pointer;" display="none"><path id="kity_path_209" fill="white" stroke="gray" d="M481.5,918.5A6,6,0,1,1,469.5,918.5A6,6,0,1,1,481.5,918.5"></path><path id="kity_path_210" fill="none" stroke="gray"></path></g><path id="node_outline20" fill="none" stroke="none" d="M486.5,907.5h333a5,5,0,0,1,5,5v12a5,5,0,0,1,-5,5h-333a5,5,0,0,1,-5,-5v-12a5,5,0,0,1,5,-5z" stroke-width="3"></path><g id="node_text20" fill="black"><text id="kity_text_125" text-rendering="inherit" font-size="12" dy=".8em" y="910.5800018310547" x="491.5">实验性功能bug还比较多：如div宽 * N &gt; 屏幕宽度，div换行</text></g></g><g id="minder_node23"><g id="node_expander20" style="cursor: pointer;" display="none"><path id="kity_path_212" fill="white" stroke="gray" d="M481.5,970.5A6,6,0,1,1,469.5,970.5A6,6,0,1,1,481.5,970.5"></path><path id="kity_path_213" fill="none" stroke="gray"></path></g><path id="node_outline21" fill="none" stroke="none" d="M486.5,959.5h130a5,5,0,0,1,5,5v12a5,5,0,0,1,-5,5h-130a5,5,0,0,1,-5,-5v-12a5,5,0,0,1,5,-5z" stroke-width="3"></path><g id="node_text21" fill="black"><text id="kity_text_127" text-rendering="inherit" font-size="12" dy=".8em" y="962.5800018310547" x="491.5">性能优于响应式布局等</text></g></g></g></g></svg>